# xmcd
#
# Track frame offsets:
#	182
#	11695
#	28137
#	45347
#	59215
#	74940
#	90202
#	104552
#	120507
#	130400
#
# Disc length: 1953 seconds
#
# Revision: 0
# Processed by: cddbd v1.4PL0 Copyright (c) Steve Scherf et al.
# Submitted via: audiograbber 1.80.04
#
DISCID=8f079f0a
DTITLE=Sweet Temptation - Sweet Temptation
DYEAR=1900
DGENRE=Pop
TTITLE0=Pickin' Up The Pieces
TTITLE1=Give It All For You
TTITLE2=Game Of Life
TTITLE3=Just A Man
TTITLE4=Honey (Rain Don't Fall)
TTITLE5=Sweet Temptation
TTITLE6=Drinkin', Cyrin', Gone
TTITLE7=Bianca
TTITLE8=Do You Feel Lonely
TTITLE9=I Can Never Fall
EXTD=
EXTT0=
EXTT1=
EXTT2=
EXTT3=
EXTT4=
EXTT5=
EXTT6=
EXTT7=
EXTT8=
EXTT9=
PLAYORDER=
